<svg width="128" height="128" viewBox="0 0 128 128" fill="none" xmlns="http://www.w3.org/2000/svg">
<rect width="128" height="128" rx="19.2481" fill="#1C1C1C"/>
<path d="M60.8402 75.8539C61.6091 75.7589 62.3781 75.6636 63.147 75.568C63.1701 75.603 63.1926 75.6386 63.217 75.6716C62.4243 75.7329 61.6322 75.7948 60.8398 75.8561C60.8398 75.8555 60.8398 75.8545 60.8402 75.8539ZM56.0509 90.4064C56.0856 89.9345 56.1202 89.4626 56.1548 88.991L56.2274 87.9994C56.3015 87.9673 56.3698 87.9314 56.4246 87.8875C56.305 88.7276 56.1815 89.5675 56.0509 90.4064ZM88.2697 107.965C86.2518 97.3688 84.234 86.7727 82.2162 76.1766C79.942 64.2344 77.6681 52.2919 75.3937 40.35C74.7752 37.1013 74.1567 33.8525 73.5378 30.6038C73.372 30.3863 73.2475 30.1226 73.1817 29.8082C72.4343 26.2524 71.5626 21.995 69.5262 18.669C68.1965 17.3729 66.8603 16.0836 65.5556 14.7648L64.7151 14.7873C64.378 14.7966 64.0815 14.75 63.8211 14.6631C63.7604 15.6919 65.0208 16.3107 65.9553 16.0887C66.0833 16.2161 66.1905 16.3723 66.2854 16.5424C65.9531 16.7435 65.7343 17.1185 65.8225 17.5227C68.4627 29.608 70.9932 41.7163 73.4118 53.8468C73.5638 54.6091 73.7114 55.3719 73.8622 56.1342C73.8477 56.5384 73.8128 56.9419 73.747 57.3439C73.6751 57.7828 73.917 58.1167 74.2859 58.2832C75.2073 62.9599 76.1103 67.64 76.9999 72.3228C76.9249 72.2721 76.8447 72.2301 76.7574 72.2002C76.5306 71.8682 76.2252 71.6205 75.9268 71.6456C75.8078 71.6555 75.6888 71.6655 75.5695 71.6754C75.469 71.6257 75.3619 71.5891 75.2458 71.5776C72.971 71.3501 70.7035 71.5827 68.5195 72.2185C68.2465 72.2564 67.9732 72.2901 67.7005 72.3305C67.4426 72.369 67.3149 72.5358 67.2787 72.7588C65.5345 72.6834 63.7627 72.5884 62.0201 72.6798C61.833 72.6895 61.6431 72.7071 61.4532 72.7283C63.1644 63.852 64.634 54.9311 65.854 45.9769C66.2428 43.1237 66.6075 40.2676 66.9479 37.4086C66.9813 37.1295 66.8719 36.8536 66.6935 36.6226C66.6906 36.5341 66.6833 36.4456 66.6794 36.3567C66.9421 34.9548 67.2017 33.5522 67.4564 32.1487C67.6056 31.3278 65.4559 30.5303 65.3381 31.179C65.283 31.4837 65.223 31.7878 65.1671 32.0926C64.9949 32.0474 64.8184 32.0576 64.7498 32.2418C64.5791 32.7008 64.4088 33.1593 64.2378 33.6183C64.0642 34.0845 64.3189 34.6106 64.6276 34.9766C62.9219 44.0951 61.0522 53.1841 58.9952 62.2323C58.3321 65.15 57.6501 68.0635 56.9508 70.9735C56.9151 71.1217 56.9604 71.2718 57.0579 71.4133C56.1844 73.8758 55.501 76.4008 55.0154 78.9676C54.9695 79.2091 55.1517 79.3872 55.4298 79.4953C55.2345 80.0737 55.0449 80.6537 54.8617 81.2363C54.6949 81.398 54.5797 81.5898 54.5643 81.8002C54.5508 81.9818 54.5377 82.1634 54.5242 82.3453C53.7909 84.7933 53.1624 87.2712 52.6517 89.7731C51.6989 94.4421 51.253 99.1701 50.817 103.907C50.5649 106.649 50.3124 109.391 50.0599 112.133C50.0198 112.572 50.3512 112.943 50.7686 113.157C50.7753 113.226 50.7833 113.296 50.7898 113.365C50.9867 113.354 51.1834 113.35 51.3804 113.34C51.5039 113.352 51.6232 113.349 51.7332 113.325C52.2545 113.302 52.7758 113.274 53.2962 113.259C53.3584 113.214 53.4213 113.17 53.4887 113.132C53.9535 112.871 54.3616 112.531 54.785 112.212C56.629 102.898 58.1576 93.5233 59.3475 84.1062C59.624 81.918 59.8752 79.7269 60.1145 77.5345C64.8024 77.1707 69.4903 76.807 74.1785 76.4435C74.6035 76.4104 75.1207 76.2693 75.3568 75.8911C75.9663 75.8484 76.5765 75.8121 77.1853 75.7602C77.417 75.7409 77.5421 75.6264 77.595 75.4647C78.526 80.407 79.4403 85.3522 80.3331 90.3012C81.5178 96.869 82.6675 103.443 83.7878 110.022C83.7804 110.027 83.773 110.03 83.7656 110.034C83.1045 109.667 81.5534 109.922 81.7885 110.692C81.9483 111.215 82.108 111.738 82.2675 112.261C84.1326 111.822 86.0228 111.472 87.9094 111.079C88.0939 110.43 88.3072 109.79 88.5222 109.15C88.4381 108.755 88.3537 108.36 88.2697 107.965Z" fill="#FE7D2C"/>
<path d="M58.7783 70.4665C60.0609 62.5873 61.3287 54.7062 62.5654 46.8202C63.3713 41.6816 64.1601 36.5408 64.9464 31.3993C67.9405 43.9949 70.7022 56.6377 73.2067 69.3251C68.3755 69.4518 63.5596 69.8378 58.7783 70.4665ZM54.0443 71.1723C53.6025 71.2458 53.1601 71.3157 52.719 71.3933C54.3635 62.1382 56.2694 52.9216 58.428 43.753C57.0001 52.8972 55.5337 62.0362 54.0443 71.1723ZM50.2566 94.0493C49.2473 100.027 48.222 106.002 47.1862 111.976C48.3552 99.6011 49.9884 87.2634 52.0774 74.9892C52.3896 75.2375 52.7024 75.3822 52.9677 75.3315C53.1053 75.3055 53.2429 75.2831 53.3809 75.2574C52.3524 81.5233 51.3136 87.7876 50.2566 94.0493ZM63.3283 24.6294C63.4967 25.3166 63.6549 26.0059 63.8217 26.6934C63.4861 26.6344 63.1345 26.6033 62.7941 26.5988C62.9738 25.9424 63.1464 25.2851 63.3283 24.6294ZM70.8655 36.807C69.2439 29.8084 67.5446 22.8255 65.7728 15.8583C65.3352 14.1372 61.8083 13.8524 61.262 15.7021C53.9503 40.4478 48.5396 65.6452 45.0608 91.0717C44.0856 98.2002 43.2631 105.344 42.591 112.501C42.5175 113.283 43.4501 113.714 44.2669 113.855C44.254 114.01 44.2967 114.162 44.4465 114.287C44.7603 114.551 45.2424 114.629 45.6514 114.618C46.6572 114.59 47.6626 114.562 48.6683 114.534C49.2098 114.519 49.759 114.404 50.2614 114.209C50.9383 114.146 51.4721 113.939 51.541 113.544C51.5581 113.445 51.5744 113.346 51.5914 113.247C51.671 113.088 51.714 112.918 51.6755 112.756C53.8877 99.997 56.0352 87.2294 58.1274 74.4544C63.3575 73.6672 68.6334 73.1802 73.9298 72.9919C75.0395 78.7269 76.102 84.4699 77.1099 90.2212C78.3485 97.2872 79.5089 104.365 80.5958 111.453C80.9089 113.494 85.4713 113.205 85.1633 111.197C81.3381 86.2532 76.5732 61.4369 70.8655 36.807Z" fill="#FFD16C"/>
</svg>
